Coordinates
version=1
nRows=6
nColumns=36
inDegrees=yes

Units are S.I. units (second, meters, Newtons, ...)
If the header above contains a line with 'inDegrees', this indicates whether rotational values are in degrees (yes) or radians (no).

endheader
time	pelvis_tilt	pelvis_list	pelvis_rotation	pelvis_tx	pelvis_ty	pelvis_tz	hip_flexion_r	hip_adduction_r	hip_rotation_r	knee_angle_r	knee_angle_r_beta	ankle_angle_r	subtalar_angle_r	mtp_angle_r	hip_flexion_l	hip_adduction_l	hip_rotation_l	knee_angle_l	knee_angle_l_beta	ankle_angle_l	subtalar_angle_l	mtp_angle_l	lumbar_extension	lumbar_bending	lumbar_rotation	arm_flex_r	arm_add_r	arm_rot_r	elbow_flex_r	pro_sup_r	arm_flex_l	arm_add_l	arm_rot_l	elbow_flex_l	pro_sup_l
      2.41666670	    -37.09394623	     -0.90095190	     -1.04695972	      1.40607829	      0.61714967	      0.07262814	     97.96723948	    -11.19488524	      2.14800142	     99.37341361	      1.73439326	     37.28389357	      3.74590083	     -7.49999987	    102.21919599	    -10.04179989	      7.88547897	     99.92774373	      1.74406814	     22.33236691	     -2.99080482	     -7.49999987	    -36.88014060	     -0.47804687	      6.79265890	     83.40012630	    -15.90020205	     20.75136372	     62.12880420	     94.00100484	     83.88194694	    -17.52291093	     34.20961047	     75.34759042	     88.87494059
      2.43333330	    -35.97615917	     -0.89701375	     -1.36512008	      1.44456663	      0.64903754	      0.07852849	     91.40306777	     -9.66191267	      1.44117341	     94.91246004	      1.65653493	     36.89327148	      1.70112644	     -7.49999987	     95.62681625	    -10.37210838	      7.03350044	     95.85146644	      1.67292368	     21.82018456	     -2.60269868	     -7.49999987	    -36.17874637	     -0.73836742	      6.03910369	     72.94831544	    -17.84457120	     20.70233823	     57.17278771	     88.32357919	     73.35033058	    -20.63296611	     30.43938171	     66.97984412	     84.97273024
      2.45000000	    -33.79270010	     -0.65198217	     -1.87244754	      1.46937478	      0.67207564	      0.07550166	     83.61351085	     -8.88679159	      0.87679671	     89.89572648	      1.56897641	     36.40694528	     -0.44362836	     -7.49999987	     88.04235596	    -10.80529137	      5.92592212	     92.18113402	      1.60886430	     20.89218706	     -2.58058598	     -7.49999987	    -35.72534193	     -0.59592830	      5.47112214	     61.04751717	    -19.48911676	     18.31431147	     50.39711958	     85.74143569	     61.70648963	    -21.76337225	     23.98406546	     56.14335041	     84.10955549
      2.46666670	    -31.94681655	     -0.38639413	     -2.20885531	      1.48857592	      0.68650505	      0.07599506	     77.53332261	     -8.07186779	      0.72555495	     86.10982900	      1.50290003	     35.98206154	     -2.90804203	     -7.49999987	     81.70198053	    -10.81858405	      4.97042398	     89.02854377	      1.55384122	     20.64795798	     -3.26473090	     -7.49999987	    -34.45155331	     -0.85337380	      3.93048059	     49.37714557	    -20.39562418	     15.14775358	     42.05302400	     65.79977012	     47.41254476	    -23.22410825	     11.72502775	     46.42396311	     90.32929625
      2.48333330	    -29.93674433	     -0.10983737	     -2.58706433	      1.49963805	      0.70495598	      0.08059296	     72.04562383	     -7.24501492	      0.51010819	     82.63988674	      1.44233812	     34.89971566	     -5.57514066	     -7.49999987	     76.50338373	    -11.07118263	      4.10742812	     86.03716074	      1.50163173	     19.47132867	     -4.99278583	     -7.49999987	    -33.05971572	     -1.73175646	      2.94120656	     38.85124889	    -20.57850012	      9.32669052	     31.22999139	     63.39801362	     35.90608105	    -25.28134042	      5.31332864	     34.95209987	     85.82150579
      2.50000000	    -28.11663062	      0.69399937	     -2.73911642	      1.51481840	      0.73415942	      0.06407637	     66.19348183	     -7.86882628	      0.62523698	     77.51501262	      1.35289219	     32.29953423	     -7.78471299	     -7.49999987	     70.71020270	    -10.00567049	      2.39928444	     81.64741233	      1.42501617	     16.64892368	     -7.77876789	     -7.49999987	    -31.48128867	     -2.08025263	      1.63676147	     28.57599349	    -22.49667481	      4.29803233	     22.06234198	     62.32643924	     24.42225153	    -27.11284881	      0.44756535	     24.06155390	     84.35023038
